
<svg width="1920px" height="1080px" viewBox="0 0 1920 1080" version="1.1" xmlns="http://www.w3.org/2000/svg" xmlns:xlink="http://www.w3.org/1999/xlink">
    <!-- Generator: Sketch 39.1 (31720) - http://www.bohemiancoding.com/sketch -->
    <desc>Created with Sketch.</desc>
    <defs>
        <rect id="path-1" x="0" y="0" width="1920" height="1080"></rect>
    </defs>
    <g id="eventbrite-+-RSS-+-shapes-+-Shell-Prompt-+-Cog-+-Group-+-Coffee-+-animal-+-c64_mouse-+-database-+-Group-+-technology-2-+-keyboard-+-pizza-+-networking-cable-Mask" stroke="none" stroke-width="1" fill="none" fill-rule="evenodd">
        <mask id="mask-2" fill="white">
            <use xlink:href="#path-1"></use>
        </mask>
        <use id="Mask" fill="#2F312E" xlink:href="#path-1"></use>
        <g id="RSS" mask="url(#mask-2)" fill="#FFFFFF" fill-opacity="0.02">
            <g transform="translate(641.671065, 876.313897) rotate(-31.000000) translate(-641.671065, -876.313897) translate(471.671065, 750.813897)">
                <ellipse id="Oval" cx="170.667059" cy="212.108151" rx="39.684827" ry="38.8186674"></ellipse>
                <path d="M265.511505,118.581724 C264.922612,117.989683 264.301003,117.461647 263.695753,116.91761 L261.912716,115.269496 C261.61827,114.965476 261.291107,114.74146 260.91487,114.45344 C209.599412,68.8503068 131.064022,70.658431 82.0877768,118.565723 L76.3460727,124.19811 L68.3960208,131.974644 C58.7120069,141.447295 58.7610813,156.888356 68.4614533,166.377008 C78.1781834,175.897662 93.9637803,175.913664 103.631436,166.441013 L117.33955,153.032091 C148.485433,122.581999 199.146566,122.581999 230.27609,153.01609 L240.17276,162.392734 C249.758625,171.769379 265.396998,171.753378 275.031938,162.312729 C279.694005,157.768417 282.262232,151.704 282.27859,145.255557 C282.294948,138.839116 279.759438,132.774699 275.09737,128.246388 L265.511505,118.581724 L265.511505,118.581724 Z" id="Shape"></path>
                <path d="M333.119663,70.5944266 L324.875164,62.5298725 C324.842448,62.4978703 324.82609,62.449867 324.760657,62.4338659 L318.250121,56.0334261 C317.105052,54.9293502 315.861834,53.9692842 314.553183,53.137227 C230.914057,-18.6917086 103.696869,-16.4835569 22.7241176,59.7136789 C22.3315225,60.0657031 21.8898529,60.3057196 21.4972578,60.689746 L6.61135813,75.2667477 C-2.22203287,83.8913403 -2.17295848,97.9243046 6.70950692,106.612902 C15.5756142,115.285498 29.9216955,115.349502 38.7550865,106.692907 L53.6409862,92.1479076 C53.7391349,92.0198988 53.8209256,91.9078911 53.9190744,91.8278857 C119.400675,29.9516339 223.27481,29.5676075 289.27987,90.5637988 L300.992292,102.036587 C309.809325,110.66118 324.188123,110.629178 333.05423,101.956582 C341.903979,93.2679846 341.936696,79.2190192 333.119663,70.5944266 L333.119663,70.5944266 Z" id="Shape"></path>
            </g>
        </g>
        <g id="shapes" mask="url(#mask-2)" fill-opacity="0.02" fill="#FFFFFF">
            <g transform="translate(1224.945503, 511.773005) rotate(-27.000000) translate(-1224.945503, -511.773005) translate(1087.945503, 355.773005)" id="Shape">
                <path d="M22.0100043,60.4978502 C25.9053966,85.8268103 29.8007888,91.671955 29.8007888,117.000915 C29.8007888,132.587968 0.585346671,146.226638 0.585346671,146.226638 L0.585346671,165.710454 C0.585346671,165.710454 29.8007888,179.349125 29.8007888,194.936177 C29.8007888,220.265137 25.9053966,226.110282 22.0100043,251.439242 C16.1669158,292.355255 37.5915734,311.83907 57.0685349,311.83907 L97.9701539,311.83907 L97.9701539,272.871439 C97.9701539,272.871439 62.9116233,276.768202 62.9116233,253.387624 C62.9116233,235.85219 66.8070156,235.85219 70.7024079,196.884559 C72.650104,179.349125 60.9639272,165.710454 49.2777503,155.968546 C60.9639272,146.226638 72.650104,134.536349 70.7024079,117.000915 C64.8593195,78.0332841 62.9116233,78.0332841 62.9116233,60.4978502 C62.9116233,37.1172716 97.9701539,39.0656531 97.9701539,39.0656531 L97.9701539,0.0980220758 L57.0685349,0.0980220758 C35.6438773,0.0980220758 16.1669158,19.5818376 22.0100043,60.4978502 L22.0100043,60.4978502 Z"></path>
                <path d="M251.838149,60.4978502 C247.942757,85.8268103 244.047365,91.671955 244.047365,117.000915 C244.047365,132.587968 273.262807,146.226638 273.262807,146.226638 L273.262807,165.710454 C273.262807,165.710454 244.047365,179.349125 244.047365,194.936177 C244.047365,220.265137 247.942757,226.110282 251.838149,251.439242 C257.681238,292.355255 236.25658,311.83907 216.779619,311.83907 L175.878,311.83907 L175.878,272.871439 C175.878,272.871439 210.93653,276.768202 210.93653,253.387624 C210.93653,235.85219 207.041138,235.85219 203.145746,196.884559 C201.19805,179.349125 212.884226,165.710454 224.570403,155.968546 C212.884226,146.226638 201.19805,134.536349 203.145746,117.000915 C207.041138,78.0332841 210.93653,78.0332841 210.93653,60.4978502 C210.93653,37.1172716 175.878,39.0656531 175.878,39.0656531 L175.878,0.0980220758 L216.779619,0.0980220758 C238.204276,0.0980220758 257.681238,19.5818376 251.838149,60.4978502 L251.838149,60.4978502 Z"></path>
            </g>
        </g>
        <path d="M597.899074,251.441108 C594.406502,251.441108 590.919388,250.108493 588.250845,247.443262 C582.919217,242.1128 582.919217,233.467185 588.250845,228.142185 L633.348674,183.008031 L588.250845,137.879339 C582.919217,132.543416 582.919217,123.8978 588.250845,118.5728 C593.582474,113.236877 602.215674,113.236877 607.541845,118.5728 L662.282445,173.357493 C664.841845,175.918954 666.271617,179.387031 666.271617,183.013493 C666.271617,186.639954 664.830931,190.10257 662.282445,192.674954 L607.547302,247.454185 C604.87876,250.108493 601.386188,251.441108 597.899074,251.441108 L597.899074,251.441108 Z M770.24656,237.787262 C770.24656,230.244877 764.140017,224.133416 756.603702,224.133416 L676.727502,224.133416 C669.191188,224.133416 663.084645,230.244877 663.084645,237.787262 C663.084645,245.329646 669.191188,251.441108 676.727502,251.441108 L756.603702,251.441108 C764.13456,251.441108 770.24656,245.329646 770.24656,237.787262 L770.24656,237.787262 Z" id="Shell-Prompt" fill-opacity="0.02" fill="#FFFFFF" mask="url(#mask-2)"></path>
        <path d="M1582.07753,158.036126 L1581.04502,157.667323 L1577.01239,148.021388 L1577.4497,147.030267 C1589.66614,119.266516 1588.82381,118.438327 1586.79752,116.425498 L1570.50208,100.495795 C1569.83585,99.833479 1568.66598,99.3676225 1567.65753,99.3676225 C1566.74065,99.3676225 1563.9636,99.3676225 1539.89641,110.290545 L1538.9314,110.724638 L1529.00187,106.717802 L1528.6033,105.727269 C1517.28554,77.6453007 1516.12624,77.6453007 1513.30986,77.6453007 L1490.29691,77.6453007 C1487.49109,77.6453007 1486.21321,77.6453007 1475.71841,105.77609 L1475.32337,106.800151 L1465.4455,110.83522 L1464.50103,110.441713 C1448.21088,103.559742 1438.69929,100.069936 1436.21984,100.069936 C1435.21374,100.069936 1434.03976,100.522264 1433.37059,101.182816 L1417.05989,117.158398 C1414.99075,119.203579 1414.13257,120.060002 1426.98883,147.244373 L1427.46136,148.252552 L1423.42228,157.887899 L1422.43379,158.270819 C1393.75344,169.37726 1393.75344,170.460141 1393.75344,173.352921 L1393.75344,195.950489 C1393.75344,198.850916 1393.75344,200.055554 1422.49072,210.375569 L1423.51796,210.739078 L1427.55762,220.346191 L1427.12384,221.327901 C1414.9074,249.104592 1415.68222,249.856315 1417.76193,251.929141 L1434.03271,267.880607 C1434.7148,268.53763 1435.89523,269.007015 1436.90192,269.007015 C1437.81293,269.007015 1440.58352,269.007015 1464.66656,258.089387 L1465.63099,257.637059 L1475.56697,261.663894 L1475.95321,262.659721 C1487.27801,290.732278 1488.44143,290.732278 1491.25957,290.732278 L1514.27957,290.732278 C1517.16991,290.732278 1518.36854,290.732278 1528.87156,262.582667 L1529.26308,261.558018 L1539.1568,257.550005 L1540.09833,257.93469 C1556.37499,264.836071 1565.88188,268.318818 1568.34548,268.318818 C1569.34278,268.318818 1570.52732,267.880607 1571.20765,267.205351 L1587.54476,251.195064 C1589.59981,249.139296 1590.45623,248.298755 1577.57708,221.140265 L1577.09809,220.120321 L1581.13013,210.526737 L1582.09279,210.148523 C1610.81892,198.983849 1610.81892,197.895675 1610.81892,194.999365 L1610.81892,172.415326 C1610.81834,169.515488 1610.81834,168.317907 1582.07753,158.036126 L1582.07753,158.036126 Z M1502.28559,220.837928 C1481.71863,220.837928 1464.98706,204.392372 1464.98706,184.192907 C1464.98706,163.992853 1481.71922,147.569061 1502.28559,147.569061 C1522.84376,147.569061 1539.57239,163.996383 1539.57239,184.192907 C1539.57298,204.388843 1522.84434,220.837928 1502.28559,220.837928 L1502.28559,220.837928 Z" id="Cog" fill-opacity="0.02" fill="#FFFFFF" mask="url(#mask-2)"></path>
        <g id="Group" mask="url(#mask-2)" fill="#FFFFFF" fill-opacity="0.02">
            <g transform="translate(159.607452, 170.082325) rotate(16.000000) translate(-159.607452, -170.082325) translate(-6.892548, 19.582325)">
                <path d="M322.014822,0.690685379 L11.3845006,0.690685379 C5.56706774,0.690685379 0.85464983,5.39288318 0.85464983,11.1983777 L0.85464983,216.109367 C0.85464983,221.914861 5.56706774,226.617608 11.3845006,226.617608 L322.015373,226.617608 C327.832806,226.617608 332.545224,221.914861 332.545224,216.109367 L332.545224,11.1983777 C332.545224,5.39288318 327.832806,0.690685379 322.014822,0.690685379 L322.014822,0.690685379 Z M306.220321,210.855521 L279.89597,210.855521 L279.89597,200.347279 L306.220321,200.347279 L306.220321,210.855521 L306.220321,210.855521 Z M306.220321,189.839037 L27.1790014,189.839037 L27.1790014,26.961015 L306.219771,26.961015 L306.219771,189.839037 L306.220321,189.839037 Z" id="Shape"></path>
                <polygon id="Shape" points="85.0934558 284.412663 85.0934558 300.175301 258.835718 300.175301 258.835718 284.412663 227.246716 263.39618 116.683008 263.39618"></polygon>
                <rect id="Rectangle-path" x="116.683008" y="237.12585" width="110.563158" height="15.7626374"></rect>
                <polygon id="Shape" points="94.1174691 37.4692568 37.7094027 76.812114 37.7094027 94.9654107 120.14726 37.4692568"></polygon>
                <polygon id="Shape" points="295.690471 37.4692568 143.565648 37.4692568 37.7094027 111.300026 37.7094027 179.330246 295.690471 179.330246"></polygon>
            </g>
        </g>
        <g id="Coffee" mask="url(#mask-2)" fill-opacity="0.02" fill="#FFFFFF">
            <g transform="translate(1666.719543, 523.372820) rotate(15.000000) translate(-1666.719543, -523.372820) translate(1510.719543, 344.872820)" id="Shape">
                <path d="M211.605545,77.9678846 L11.6769737,77.9678846 C5.54305406,77.9678846 0.569830845,82.9491034 0.569830845,89.0928846 L0.569830845,333.842885 C0.569830845,346.130447 10.5148889,356.092885 22.7841166,356.092885 L200.498402,356.092885 C212.76763,356.092885 222.712688,346.130447 222.712688,333.842885 L222.712688,89.0928846 C222.712688,82.9491034 217.739465,77.9678846 211.605545,77.9678846 L211.605545,77.9678846 Z"></path>
                <path d="M111.641259,55.7178846 C117.780733,55.7178846 122.748402,50.7366659 122.748402,44.5928846 L122.748402,11.2178846 C122.748402,5.0741034 117.780733,0.0928846462 111.641259,0.0928846462 C105.501786,0.0928846462 100.534117,5.0741034 100.534117,11.2178846 L100.534117,44.5928846 C100.534117,50.7366659 105.501786,55.7178846 111.641259,55.7178846 L111.641259,55.7178846 Z"></path>
                <path d="M156.069831,55.7178846 C162.209304,55.7178846 167.176974,50.7366659 167.176974,44.5928846 L167.176974,33.4678846 C167.176974,27.3241034 162.209304,22.3428846 156.069831,22.3428846 C149.930358,22.3428846 144.962688,27.3241034 144.962688,33.4678846 L144.962688,44.5928846 C144.962688,50.7366659 149.930358,55.7178846 156.069831,55.7178846 L156.069831,55.7178846 Z"></path>
                <path d="M67.212688,55.7178846 C73.3521612,55.7178846 78.3198308,50.7366659 78.3198308,44.5928846 L78.3198308,33.4678846 C78.3198308,27.3241034 73.3521612,22.3428846 67.212688,22.3428846 C61.0732148,22.3428846 56.1055451,27.3241034 56.1055451,33.4678846 L56.1055451,44.5928846 C56.1055451,50.7366659 61.0732148,55.7178846 67.212688,55.7178846 L67.212688,55.7178846 Z"></path>
                <path d="M244.926974,122.467885 L244.926974,166.967885 C257.173293,166.967885 267.141259,176.94701 267.141259,189.217885 L267.141259,233.717885 C267.141259,245.98876 257.173293,255.967885 244.926974,255.967885 L244.926974,300.467885 C281.676344,300.467885 311.569831,270.525642 311.569831,233.717885 L311.569831,189.217885 C311.569831,152.410127 281.676344,122.467885 244.926974,122.467885 L244.926974,122.467885 Z"></path>
            </g>
        </g>
        <g id="animal" mask="url(#mask-2)" fill-opacity="0.02" fill="#FFFFFF">
            <g transform="translate(1082.331967, 167.124338) rotate(17.000000) translate(-1082.331967, -167.124338) translate(884.831967, 18.124338)" id="Shape">
                <path d="M387.582354,54.471388 L369.291429,50.0990997 C345.044812,46.9127152 342.558667,34.234083 342.558667,34.234083 C338.150953,14.7678663 321.07462,0.204165579 299.989294,0.204165579 C271.272977,0.204165579 219.842943,25.8123266 233.025878,118.189042 C233.025878,118.189042 237.296218,137.258842 229.586487,134.539125 C217.132307,132.215824 203.966125,131.058356 190.221964,131.37783 C169.716292,131.87126 150.4939,135.626343 133.474527,141.609386 C104.848676,151.708803 54.073684,169.47227 12.5011147,151.78909 C8.84393487,150.240223 4.76290409,151.32075 2.29853781,154.4787 C-0.175880279,157.61825 -0.440577677,162.139404 1.59658711,165.718859 C20.1689628,198.074461 53.2125798,241.297223 95.3564263,269.89607 C120.00344,286.632533 154.79607,298.586911 194.306345,297.63016 C255.667558,296.114745 303.798926,265.811476 317.390635,228.663753 C325.524217,206.350698 333.734862,169.412055 299.985944,123.705418 C292.14554,113.137661 295.228092,97.8731229 322.568987,82.9431134 C331.102966,78.2864759 343.386265,71.4821651 387.434928,67.076424 C393.707251,66.4525282 400.671473,59.1915859 387.582354,54.471388 L387.582354,54.471388 Z"></path>
            </g>
        </g>
        <g id="c64_mouse" mask="url(#mask-2)" fill-opacity="0.02" fill="#FFFFFF">
            <g transform="translate(707.000000, 355.000000)" id="Shape">
                <path d="M177.554701,148.136048 C177.142399,147.66052 165.084864,132.910014 178.874067,120.564581 L194.24834,106.774276 C194.24834,106.774276 210.135701,95.8097025 221.47858,108.456912 L235.74422,95.6999653 L229.642154,88.9236944 C204.565046,60.9772927 161.511582,58.6911015 133.520875,83.7477575 L107.371783,107.18579 L159.001123,164.624059 L177.554701,148.136048 L177.554701,148.136048 Z"></path>
                <path d="M28.0174408,178.268048 C0.0358959811,203.333849 -10.4823795,253.620911 14.6313776,281.558168 L34.1195066,303.231261 C59.2149392,331.131939 110.44114,326.129753 138.431847,301.073097 L212.325481,234.855854 L101.837777,112.142253 L28.0174408,178.268048 L28.0174408,178.268048 Z"></path>
                <path d="M226.655257,143.755705 L212.19721,156.722982 C212.19721,156.722982 196.465608,169.169007 184.307287,155.671334 L184.307287,155.771926 L165.900305,172.305661 L217.758702,230.009128 L243.953606,206.552806 C271.907664,181.487005 274.253203,138.534044 249.148608,110.605932 L243.046542,103.857096 L228.542683,116.815228 C228.551845,116.787793 240.224566,131.611457 226.655257,143.755705 L226.655257,143.755705 Z"></path>
                <path d="M290.745272,6.15442682 C270.835679,-2.93546955 252.822674,-1.90211111 242.533455,8.91614583 C231.886908,19.999601 235.451028,35.1982003 251.54912,48.3758066 C271.77023,65.0467131 268.096163,75.0145069 264.59618,80.071562 C264.59618,80.071562 260.106672,88.2652714 245.337107,92.9199567 C243.394708,93.3589054 236.358092,94.0447628 235.689247,95.9377292 L243.055704,103.829661 C244.026904,103.546174 261.389388,96.0657559 271.257143,81.6718958 C279.787208,69.3173184 275.508432,56.3317521 258.081812,42.0659188 C242.331886,29.1900897 241.974557,16.3965636 246.720609,11.4218114 C250.98106,6.98660043 264.577855,3.65790598 284.78064,12.8758291 C286.090844,13.4336597 288.463869,12.4368803 290.113076,10.5530588 C291.70731,8.7423953 292.009664,6.72140224 290.745272,6.15442682 L290.745272,6.15442682 Z"></path>
                <path d="M203.502224,115.781869 L188.421142,129.306976 C183.840012,133.394686 183.455197,140.436155 187.578214,145.026827 C191.673745,149.608355 198.747011,149.974145 203.309816,145.886435 L218.418385,132.352183 C222.990353,128.264473 223.366006,121.223004 219.25215,116.650622 C215.138295,112.050805 208.101679,111.666725 203.502224,115.781869 L203.502224,115.781869 Z"></path>
            </g>
        </g>
        <g id="database" mask="url(#mask-2)" fill-opacity="0.02">
            <g transform="translate(190.094618, 632.278408) rotate(14.000000) translate(-190.094618, -632.278408) translate(53.594618, 466.778408)" id="Group">
                <g transform="translate(0.371947, 1.000000)">
                    <path d="M135.823883,1 C208.064297,1 269.151007,30.8496058 271.218111,66.5816169 C269.151007,102.310379 208.064297,132.167566 135.823883,132.167566 C63.5813045,132.167566 2.50000534,102.316877 0.429654597,66.5816169 C2.50000534,30.8496058 63.5813045,1 135.823883,1 L135.823883,1 Z" id="Shape" fill="#FFFFFF"></path>
                    <path d="M271.412917,261.753783 C271.412917,298.305713 209.325122,329.186446 135.823883,329.186446 C62.3226439,329.186446 0.234848986,298.305713 0.234848986,261.753783 L0.234848986,229.508323 C23.448102,257.402904 74.7880384,276.374771 135.823883,276.374771 C196.859728,276.374771 248.198582,257.397488 271.412917,229.508323 L271.412917,261.753783 L271.412917,261.753783 Z" id="Shape" fill="#FFFFFF"></path>
                    <path d="M271.412917,195.623026 C271.412917,232.173873 209.325122,263.055689 135.823883,263.055689 C62.3226439,263.055689 0.234848986,232.173873 0.234848986,195.623026 L0.234848986,162.036668 C23.448102,189.92475 74.7880384,208.891202 135.823883,208.891202 C196.859728,208.891202 248.198582,189.912836 271.412917,162.036668 L271.412917,195.623026 L271.412917,195.623026 Z" id="Shape" fill="#FFFFFF"></path>
                    <path d="M271.412917,128.13729 C271.412917,164.690303 209.325122,195.56887 135.823883,195.56887 C62.3226439,195.56887 0.234848986,164.68922 0.234848986,128.13729 L0.234848986,98.6266997 C23.448102,126.52128 74.7880384,145.48015 135.823883,145.48015 C196.859728,145.48015 248.198582,126.514782 271.412917,98.6266997 L271.412917,128.13729 L271.412917,128.13729 Z" id="Shape" fill="#FFFFFF"></path>
                </g>
            </g>
        </g>
        <g id="Group" mask="url(#mask-2)" fill-opacity="0.02" fill="#FFFFFF">
            <g transform="translate(1919.510926, 184.292745) rotate(-12.000000) translate(-1919.510926, -184.292745) translate(1743.510926, 33.292745)" id="Shape">
                <path d="M326.892843,0.182389482 L26.0835302,0.182389482 C12.2097254,0.182389482 1,11.3980934 1,25.3050512 L1,276.106733 C1,289.93643 12.2097254,301.177887 26.0835302,301.177887 L326.892843,301.177887 C340.689428,301.177887 351.950633,289.93643 351.950633,276.106733 L351.950633,25.3050512 C351.963503,11.3980934 340.702298,0.182389482 326.892843,0.182389482 L326.892843,0.182389482 Z M120.870703,19.0211665 C127.781865,19.0211665 133.393163,24.6354569 133.393163,31.576059 C133.393163,38.4909074 127.781865,44.1051978 120.870703,44.1051978 C113.95954,44.1051978 108.335373,38.4909074 108.335373,31.576059 C108.335373,24.6225801 113.95954,19.0211665 120.870703,19.0211665 L120.870703,19.0211665 Z M82.4667758,19.0211665 C89.3779382,19.0211665 95.0407157,24.6354569 95.0407157,31.576059 C95.0407157,38.4909074 89.3908082,44.1051978 82.4667758,44.1051978 C75.5427433,44.1051978 69.9443156,38.4909074 69.9443156,31.576059 C69.9443156,24.6225801 75.5556133,19.0211665 82.4667758,19.0211665 L82.4667758,19.0211665 Z M44.8350455,19.0211665 C51.7719479,19.0211665 57.3832456,24.6354569 57.3832456,31.576059 C57.3832456,38.4909074 51.7719479,44.1051978 44.8350455,44.1051978 C37.9753628,44.1051978 32.3383253,38.4909074 32.3383253,31.576059 C32.3511952,24.6225801 37.9753628,19.0211665 44.8350455,19.0211665 L44.8350455,19.0211665 Z M326.892843,276.106733 L26.0835302,276.106733 L26.0835302,63.1628806 L326.892843,63.1628806 C326.892843,63.1628806 326.892843,276.106733 326.892843,276.106733 L326.892843,276.106733 Z"></path>
            </g>
        </g>
        <g id="technology-2" mask="url(#mask-2)" fill-opacity="0.02" fill="#FFFFFF">
            <g transform="translate(1567.619560, 902.718737) rotate(-35.000000) translate(-1567.619560, -902.718737) translate(1418.619560, 732.718737)" id="Android">
                <path d="M276.481721,106.699366 C264.813864,106.699366 255.267435,116.243225 255.267435,127.907943 L255.267435,212.742251 C255.267435,224.407631 264.813864,233.950828 276.481721,233.950828 C288.149578,233.950828 297.696007,224.407631 297.696007,212.742251 L297.696007,127.907943 C297.696007,116.243225 288.149578,106.699366 276.481721,106.699366 L276.481721,106.699366 Z M21.9102924,106.699366 C10.2424352,106.699366 0.69600666,116.243225 0.69600666,127.907943 L0.69600666,212.742251 C0.69600666,224.407631 10.2424352,233.950828 21.9102924,233.950828 C33.5781495,233.950828 43.1245781,224.407631 43.1245781,212.742251 L43.1245781,127.907943 C43.1245781,116.243225 33.5774866,106.699366 21.9102924,106.699366 L21.9102924,106.699366 Z M53.7317209,244.555116 C53.7317209,262.125097 67.9784397,276.367982 85.5531495,276.367982 L96.1602924,276.367982 L96.1602924,318.785136 C96.1602924,330.449853 105.706721,339.993713 117.374578,339.993713 C129.042435,339.993713 138.588864,330.449853 138.588864,318.785136 L138.588864,276.367982 L159.80315,276.367982 L159.80315,318.785136 C159.80315,330.449853 169.349578,339.993713 181.017435,339.993713 C192.685292,339.993713 202.231721,330.449853 202.231721,318.785136 L202.231721,276.367982 L212.838864,276.367982 C230.413574,276.367982 244.660292,262.125097 244.660292,244.555116 L244.660292,127.907943 L53.7317209,127.907943 L53.7317209,244.555116 L53.7317209,244.555116 Z M188.508067,30.3133616 L201.934058,4.52969692 C202.608937,3.23663649 202.099795,1.62743571 200.806386,0.954063389 C199.514304,0.28069107 197.903344,0.788371382 197.22979,2.08143181 L183.600275,28.2561297 C172.9275,24.1310614 161.327263,21.8650575 149.196007,21.8650575 C137.065413,21.8650575 125.465176,24.1310614 114.790413,28.2561297 L101.16156,2.08209458 C100.488007,0.78903415 98.8790357,0.281353838 97.5849642,0.954726157 C96.2908928,1.62809848 95.7837388,3.23663649 96.4572924,4.53035969 L109.881958,30.3146872 C79.8405401,43.9073967 58.0925826,72.5939854 54.3204174,106.700028 L244.068281,106.700028 C240.298105,72.5926599 218.550147,43.906734 188.508067,30.3133616 L188.508067,30.3133616 Z M106.767435,90.2627184 C98.2731026,90.2627184 91.3870781,83.3785468 91.3870781,74.8865 C91.3870781,66.3944533 98.2731026,59.5102817 106.767435,59.5102817 C115.261768,59.5102817 122.147792,66.3944533 122.147792,74.8865 C122.147129,83.3785468 115.261768,90.2627184 106.767435,90.2627184 L106.767435,90.2627184 Z M191.624578,90.2627184 C183.130908,90.2627184 176.243558,83.3785468 176.243558,74.8865 C176.243558,66.3944533 183.130908,59.5102817 191.624578,59.5102817 C200.118248,59.5102817 207.004272,66.3944533 207.004272,74.8865 C207.004272,83.3785468 200.118248,90.2627184 191.624578,90.2627184 L191.624578,90.2627184 Z"></path>
            </g>
        </g>
        <g id="keyboard" mask="url(#mask-2)" fill-opacity="0.02">
            <g transform="translate(1082.599661, 905.469126) rotate(-13.000000) translate(-1082.599661, -905.469126) translate(935.599661, 766.469126)" id="Group">
                <g transform="translate(0.000000, 0.000000)">
                    <ellipse id="Oval" fill="#FFFFFF" cx="53.289002" cy="148.902361" rx="9.13014257" ry="9.09463519"></ellipse>
                    <path d="M90.7046843,157.996996 L90.7046843,157.996996 C95.7769857,157.996996 99.8348269,153.895494 99.8348269,148.902361 C99.8348269,143.849785 95.7173116,139.807725 90.7046843,139.807725 L90.7046843,139.807725 C85.6323829,139.807725 81.5745418,143.909227 81.5745418,148.902361 C81.5745418,153.954936 85.6323829,157.996996 90.7046843,157.996996 L90.7046843,157.996996 Z" id="Shape" fill="#FFFFFF"></path>
                    <ellipse id="Oval" fill="#FFFFFF" cx="128.060692" cy="148.902361" rx="9.13014257" ry="9.09463519"></ellipse>
                    <ellipse id="Oval" fill="#FFFFFF" cx="165.476375" cy="148.902361" rx="9.13014257" ry="9.09463519"></ellipse>
                    <ellipse id="Oval" fill="#FFFFFF" cx="202.892057" cy="148.902361" rx="9.13014257" ry="9.09463519"></ellipse>
                    <ellipse id="Oval" fill="#FFFFFF" cx="240.307739" cy="148.902361" rx="9.13014257" ry="9.09463519"></ellipse>
                    <ellipse id="Oval" fill="#FFFFFF" cx="72.0266802" cy="187.5397" rx="9.13014257" ry="9.09463519"></ellipse>
                    <ellipse id="Oval" fill="#FFFFFF" cx="109.382688" cy="187.5397" rx="9.13014257" ry="9.09463519"></ellipse>
                    <ellipse id="Oval" fill="#FFFFFF" cx="146.798371" cy="187.5397" rx="9.13014257" ry="9.09463519"></ellipse>
                    <ellipse id="Oval" fill="#FFFFFF" cx="184.154379" cy="187.5397" rx="9.13014257" ry="9.09463519"></ellipse>
                    <ellipse id="Oval" fill="#FFFFFF" cx="221.570061" cy="187.5397" rx="9.13014257" ry="9.09463519"></ellipse>
                    <path d="M74.2942974,226.117597 C74.2942974,230.159657 77.5763747,233.42897 81.6342159,233.42897 L212.081874,233.42897 C216.139715,233.42897 219.421792,230.159657 219.421792,226.117597 C219.421792,222.075536 216.139715,218.806223 212.081874,218.806223 L81.5745418,218.806223 C77.5167006,218.865665 74.2942974,222.075536 74.2942974,226.117597 L74.2942974,226.117597 Z" id="Shape" fill="#FFFFFF"></path>
                    <path d="M170.906721,59.382618 L213.215682,59.382618 C229.506721,59.382618 242.814053,46.1864807 242.814053,29.8993562 C242.814053,13.6122318 229.566395,0.416094421 213.215682,0.416094421 L69.699389,0.475536481 C65.6415479,0.475536481 62.4191446,3.74484979 62.4191446,7.78690987 C62.4191446,11.82897 65.701222,15.0388412 69.7590631,15.0388412 L69.7590631,15.0388412 L213.275356,14.9793991 C221.510387,14.9793991 228.253564,21.6369099 228.253564,29.8993562 C228.253564,38.1618026 221.570061,44.8193133 213.275356,44.8193133 L170.966395,44.8193133 C153.302851,44.8193133 138.921385,59.1448498 138.921385,76.7396996 L138.921385,98.5549356 L17.4845214,98.5549356 C8.17535642,98.5549356 0.596741344,105.687983 0.596741344,114.425966 L0.596741344,260.653433 C0.596741344,269.391416 8.17535642,276.524464 17.4845214,276.524464 L276.11222,276.524464 C285.421385,276.524464 293,269.391416 293,260.653433 L293,114.425966 C293,105.687983 285.421385,98.5549356 276.11222,98.5549356 L153.541548,98.5549356 L153.541548,76.7396996 C153.541548,67.1695279 161.299185,59.382618 170.906721,59.382618 L170.906721,59.382618 Z M278.379837,114.425966 L278.379837,260.653433 C278.379837,261.188412 277.484725,261.961159 276.11222,261.961159 L17.4845214,261.961159 C16.1120163,261.961159 15.2169043,261.188412 15.2169043,260.653433 L15.2169043,114.425966 C15.2169043,113.890987 16.1120163,113.11824 17.4845214,113.11824 L276.11222,113.11824 C277.544399,113.058798 278.379837,113.950429 278.379837,114.425966 L278.379837,114.425966 Z" id="Shape" fill="#FFFFFF"></path>
                </g>
            </g>
        </g>
        <g id="pizza" mask="url(#mask-2)" fill-opacity="0.02">
            <g transform="translate(513.000000, 484.500000) rotate(-27.000000) translate(-513.000000, -484.500000) translate(383.000000, 319.000000)" id="XMLID_91_">
                <g>
                    <path d="M258.703,43.654 C261.873,36 258.238,27.226 250.585,24.055 C212.047,8.093 171.452,0 129.922,0 C88.549,0 48.032,8.094 9.495,24.057 C1.842,27.227 -1.793,36.001 1.377,43.655 L116.182,320.819 C118.504,326.424 123.973,330.079 130.04,330.079 C136.107,330.079 141.576,326.424 143.898,320.819 L237.096,95.818 C237.114,95.775 237.131,95.731 237.15,95.688 L258.703,43.654 L258.703,43.654 Z M129.922,30 C162.497,30 194.443,35.507 225.098,46.389 L214.638,71.641 C158.963,56.033 101.001,56.03 45.435,71.629 L34.98,46.388 C65.615,35.507 97.485,30 129.922,30 L129.922,30 Z M130.04,275.882 L108.876,224.786 C120.861,222.94 130.04,212.581 130.04,200.079 C130.04,186.272 118.847,175.079 105.04,175.079 C99.52,175.079 94.42,176.872 90.284,179.902 L57.005,99.562 C105.032,86.729 154.943,86.733 203.068,99.576 L183.596,146.584 C180.927,145.611 178.045,145.08 175.039,145.08 C161.232,145.08 150.039,156.273 150.039,170.08 C150.039,180.111 155.951,188.758 164.478,192.74 L130.04,275.882 L130.04,275.882 Z" id="XMLID_92_" fill="#FFFFFF"></path>
                    <circle id="XMLID_104_" fill="#FFFFFF" cx="120.04" cy="130.079" r="25"></circle>
                </g>
            </g>
        </g>
        <g id="networking-cable" mask="url(#mask-2)" fill-opacity="0.02" fill="#FFFFFF">
            <g transform="translate(68.033724, 877.000000)" id="Shape">
                <path d="M253.861381,90.7018871 L253.861381,30.0760238 L238.902338,30.0760238 L169.40935,0 L165.528573,8.97993808 L214.21879,30.0760238 L153.999054,30.0760238 L153.999054,41.2671024 C114.379026,42.1244834 58.6492596,45.8924474 45.0214139,86.6180459 C34.1913378,118.882648 71.6002256,152.230257 90.8687359,172.604337 C116.341977,199.453901 155.036937,230.139117 163.72356,267.999258 C174.734138,316.012595 43.3969025,320.660502 19.9543003,322.75883 C4.61169252,324.112589 -9.64790765,356.151564 9.82366663,354.436802 C64.2447989,349.608393 150.434154,346.381933 184.729395,294.826258 C206.818238,261.636588 185.270899,225.829649 163.475371,199.228274 C137.302687,167.27955 103.413574,140.723301 80.8057902,105.976807 C74.6913098,96.5456157 71.1264097,87.6333656 75.1651256,85.2417238 C96.8704031,72.3133204 128.75144,73.0127629 153.976492,72.742011 L153.976492,90.7244498 L253.861381,90.7244498 L253.861381,90.7018871 L253.861381,90.7018871 Z"></path>
            </g>
        </g>
    </g>
</svg>
