<?xml version="1.0" standalone="no"?>
<!DOCTYPE svg PUBLIC "-//W3C//DTD SVG 20010904//EN"
 "http://www.w3.org/TR/2001/REC-SVG-20010904/DTD/svg10.dtd">
<svg version="1.0" xmlns="http://www.w3.org/2000/svg"
 width="492.000000pt" height="492.000000pt" viewBox="0 0 492.000000 492.000000"
 preserveAspectRatio="xMidYMid meet">
<metadata>
Created by potrace 1.11, written by Peter Selinger 2001-2013
</metadata>
<g transform="translate(0.000000,492.000000) scale(0.100000,-0.100000)"
fill="#000000" stroke="none">
<path d="M1341 4634 c-163 -44 -235 -123 -426 -469 -12 -22 -31 -56 -43 -75
-12 -19 -25 -41 -28 -49 -4 -7 -60 -105 -126 -218 -65 -112 -118 -208 -118
-213 0 -4 -3 -10 -7 -12 -5 -1 -17 -19 -27 -38 -11 -19 -76 -132 -144 -250
-68 -118 -134 -233 -146 -255 -12 -22 -66 -116 -120 -209 -138 -237 -148 -262
-151 -370 -3 -108 10 -162 66 -266 7 -13 45 -80 122 -210 11 -19 25 -44 31
-55 26 -47 138 -241 147 -255 13 -21 240 -416 271 -470 14 -25 76 -133 138
-240 62 -107 122 -211 133 -230 183 -325 215 -368 327 -433 99 -57 63 -56
1216 -56 1157 -1 1118 -3 1226 56 89 48 154 128 253 308 7 11 63 110 127 220
316 547 370 640 415 720 19 33 38 67 43 75 11 17 60 103 95 165 13 22 71 123
131 225 132 228 140 245 160 322 21 80 13 188 -19 266 -18 45 -187 346 -355
632 -12 19 -27 46 -35 60 -7 14 -47 84 -89 155 -254 440 -298 518 -298 526 0
5 -4 9 -10 9 -5 0 -10 4 -10 10 0 5 -27 55 -60 111 -33 55 -60 102 -60 104 0
2 -34 60 -75 130 -104 176 -182 244 -320 280 -86 22 -2151 22 -2234 -1z"/>
</g>
</svg>
